<svg xmlns="http://www.w3.org/2000/svg" width="400" height="400" fill="none"><path fill="#22c55e" stroke="#28002b" stroke-width="5" d="M200 150V8a192 192 0 0 1 135.764 56.236L235.355 164.645A50 50 0 0 0 200 150Z"/><path fill="#eab308" stroke="#28002b" stroke-width="5" d="m235.355 164.645 100.409-100.41A192 192 0 0 1 392 200H250a50 50 0 0 0-14.645-35.355Z"/><path fill="#ef4444" stroke="#28002b" stroke-width="5" d="M250 200h142a192 192 0 0 1-56.236 135.764L235.355 235.355A50 50 0 0 0 250 200Z"/><path fill="#3b82f6" stroke="#28002b" stroke-width="5" d="m235.355 235.355 100.409 100.409A191.99 191.99 0 0 1 200 392V250a50 50 0 0 0 35.355-14.645Z"/><path fill="#22c55e" stroke="#28002b" stroke-width="5" d="M200 250v142a192 192 0 0 1-135.764-56.236l100.409-100.409A50 50 0 0 0 200 250Z"/><path fill="#eab308" stroke="#28002b" stroke-width="5" d="M164.645 235.355 64.235 335.764A192 192 0 0 1 8 200h142a50 50 0 0 0 14.645 35.355Z"/><path fill="#ef4444" stroke="#28002b" stroke-width="5" d="M150 200H8A192 192 0 0 1 64.236 64.236l100.409 100.409A50 50 0 0 0 150 200Z"/><path fill="#3b82f6" stroke="#28002b" stroke-width="5" d="M164.645 164.645 64.235 64.235A192 192 0 0 1 200 8v142a50 50 0 0 0-35.355 14.645Z"/><circle cx="200" cy="200" r="135" fill="#fff"/><mask id="a" width="266" height="266" x="67" y="67" maskUnits="userSpaceOnUse" style="mask-type:luminance"><path fill="#fff" d="M200 332.787c73.336 0 132.787-59.451 132.787-132.787S273.336 67.213 200 67.213 67.213 126.664 67.213 200 126.664 332.787 200 332.787"/></mask><g mask="url(#a)"><path fill="#28002b" d="M130.798 105.593h-.068a2.213 2.213 0 0 1-2.145-2.28c.022-.699.575-17.233 4.933-25.599a2.214 2.214 0 0 1 3.926 2.045c-3.888 7.467-4.428 23.53-4.433 23.692a2.213 2.213 0 0 1-2.213 2.142"/></g><mask id="b" width="266" height="266" x="67" y="67" maskUnits="userSpaceOnUse" style="mask-type:luminance"><path fill="#fff" d="M200 332.787c73.336 0 132.787-59.451 132.787-132.787S273.336 67.213 200 67.213 67.213 126.664 67.213 200 126.664 332.787 200 332.787"/></mask><g mask="url(#b)"><path fill="#28002b" d="M74.224 152.221c-.777 0-1.529-.409-1.934-1.135a2.21 2.21 0 0 1 .854-3.01c7.423-4.143 18.2-6.015 18.657-6.093a2.212 2.212 0 0 1 .744 4.362c-.105.018-10.493 1.826-17.245 5.595-.341.193-.71.281-1.076.281"/></g><mask id="c" width="266" height="266" x="67" y="67" maskUnits="userSpaceOnUse" style="mask-type:luminance"><path fill="#fff" d="M200 332.787c73.336 0 132.787-59.451 132.787-132.787S273.336 67.213 200 67.213 67.213 126.664 67.213 200 126.664 332.787 200 332.787"/></mask><g mask="url(#c)"><path fill="#28002b" d="M173.606 117.887a2.21 2.21 0 0 1-1.852-1.001 2.21 2.21 0 0 1 .637-3.062c.821-.54 20.589-13.266 60.186-18.323a2.215 2.215 0 0 1 .562 4.393c-38.594 4.929-58.127 17.506-58.322 17.632a2.2 2.2 0 0 1-1.211.361"/></g><mask id="d" width="266" height="266" x="67" y="67" maskUnits="userSpaceOnUse" style="mask-type:luminance"><path fill="#fff" d="M200 332.787c73.336 0 132.787-59.451 132.787-132.787S273.336 67.213 200 67.213 67.213 126.664 67.213 200 126.664 332.787 200 332.787"/></mask><g mask="url(#d)"><path fill="#28002b" d="M273.002 197.143q-.227 0-.456-.047a2.214 2.214 0 0 1-1.713-2.62c8.091-38.561 6.686-57.948 6.67-58.141a2.215 2.215 0 0 1 2.03-2.381 2.197 2.197 0 0 1 2.383 2.027c.064.804 1.496 20.113-6.752 59.405a2.21 2.21 0 0 1-2.162 1.757"/></g><mask id="e" width="266" height="266" x="67" y="67" maskUnits="userSpaceOnUse" style="mask-type:luminance"><path fill="#fff" d="M200 332.787c73.336 0 132.787-59.451 132.787-132.787S273.336 67.213 200 67.213 67.213 126.664 67.213 200 126.664 332.787 200 332.787"/></mask><g mask="url(#e)"><path fill="#28002b" d="M214.912 215.045c-.52 0-1.042-.182-1.461-.551-34.436-30.282-53.033-45.646-53.216-45.796a2.213 2.213 0 1 1 2.817-3.415c.184.153 18.827 15.551 53.323 45.887a2.212 2.212 0 0 1-1.463 3.875"/></g><mask id="f" width="266" height="266" x="67" y="67" maskUnits="userSpaceOnUse" style="mask-type:luminance"><path fill="#fff" d="M200 332.787c73.336 0 132.787-59.451 132.787-132.787S273.336 67.213 200 67.213 67.213 126.664 67.213 200 126.664 332.787 200 332.787"/></mask><g mask="url(#f)"><path fill="#28002b" d="M104.809 246.05a2.21 2.21 0 0 1-2.206-2.067c-1.965-29.607 6.998-57.733 7.381-58.917a2.22 2.22 0 0 1 2.786-1.425 2.214 2.214 0 0 1 1.425 2.786c-.091.281-9.08 28.527-7.175 57.262a2.217 2.217 0 0 1-2.062 2.357q-.076.005-.149.004"/></g><mask id="g" width="266" height="266" x="67" y="67" maskUnits="userSpaceOnUse" style="mask-type:luminance"><path fill="#fff" d="M200 332.787c73.336 0 132.787-59.451 132.787-132.787S273.336 67.213 200 67.213 67.213 126.664 67.213 200 126.664 332.787 200 332.787"/></mask><g mask="url(#g)"><path fill="#28002b" d="M148.757 289.859a2.214 2.214 0 0 1-.542-4.358c.348-.088 35.034-8.943 58.581-20.015a2.213 2.213 0 1 1 1.886 4.006c-23.935 11.256-59.026 20.212-59.38 20.301a2.3 2.3 0 0 1-.545.066"/></g><mask id="h" width="266" height="266" x="67" y="67" maskUnits="userSpaceOnUse" style="mask-type:luminance"><path fill="#fff" d="M200 332.787c73.336 0 132.787-59.451 132.787-132.787S273.336 67.213 200 67.213 67.213 126.664 67.213 200 126.664 332.787 200 332.787"/></mask><g mask="url(#h)"><path fill="#28002b" d="M253.825 326.15q-.397 0-.79-.146a2.21 2.21 0 0 1-1.275-2.857c6.263-16.382 5.847-32.828 5.841-32.991a2.215 2.215 0 0 1 2.146-2.28h.069c1.188 0 2.173.947 2.211 2.145.022.706.46 17.466-6.135 34.708a2.21 2.21 0 0 1-2.067 1.421"/></g><mask id="i" width="266" height="266" x="67" y="67" maskUnits="userSpaceOnUse" style="mask-type:luminance"><path fill="#fff" d="M200 332.787c73.336 0 132.787-59.451 132.787-132.787S273.336 67.213 200 67.213 67.213 126.664 67.213 200 126.664 332.787 200 332.787"/></mask><g mask="url(#i)"><path fill="#28002b" d="M206.925 336.664c-.135 0-.275-.011-.412-.04-27.447-5.187-55.239-21.701-56.408-22.403a2.21 2.21 0 0 1-.761-3.036 2.21 2.21 0 0 1 3.034-.762c.279.169 28.299 16.811 54.956 21.853a2.213 2.213 0 0 1-.409 4.388"/></g><mask id="j" width="266" height="266" x="67" y="67" maskUnits="userSpaceOnUse" style="mask-type:luminance"><path fill="#fff" d="M200 332.787c73.336 0 132.787-59.451 132.787-132.787S273.336 67.213 200 67.213 67.213 126.664 67.213 200 126.664 332.787 200 332.787"/></mask><g mask="url(#j)"><path fill="#28002b" d="M298.026 244.707c-.848 0-1.335-.033-1.432-.042a2.213 2.213 0 0 1-2.036-2.379 2.22 2.22 0 0 1 2.372-2.034c.126.002 12.92.819 32.577-8.292a2.213 2.213 0 0 1 1.864 4.016c-17.19 7.965-29.324 8.731-33.345 8.731"/></g><mask id="k" width="266" height="266" x="67" y="67" maskUnits="userSpaceOnUse" style="mask-type:luminance"><path fill="#fff" d="M200 332.787c73.336 0 132.787-59.451 132.787-132.787S273.336 67.213 200 67.213 67.213 126.664 67.213 200 126.664 332.787 200 332.787"/></mask><g mask="url(#k)"><path fill="#28002b" d="M333.418 188a2.215 2.215 0 0 1-2.138-1.646c-8.295-31.298-29.1-50.8-29.311-50.993a2.214 2.214 0 0 1 3.004-3.251c.891.826 21.962 20.58 30.585 53.109a2.213 2.213 0 0 1-2.14 2.781"/></g><mask id="l" width="266" height="266" x="67" y="67" maskUnits="userSpaceOnUse" style="mask-type:luminance"><path fill="#fff" d="M200 332.787c73.336 0 132.787-59.451 132.787-132.787S273.336 67.213 200 67.213 67.213 126.664 67.213 200 126.664 332.787 200 332.787"/></mask><g fill="#28002b" mask="url(#l)"><path d="M279.741 136.654c7.912-.292 24.324-2.344 24.324-2.344.586-7.033 1.173-15.239 1.173-15.239v-.007c-17.057-22.144-40.936-38.738-68.5-46.661-3.054 15.166-5.938 25.568-5.938 25.568 29.306 14.067 48.941 38.683 48.941 38.683M91.602 144.274s2.447 16.118 20.272 42.199c0 0 17.824-8.79 50.352-19.048 0 0 3.225-22.565 12.015-52.163 0 0-14.945-10.55-43.372-13.188 0 0-20.219 9.671-39.267 42.2M273.283 193.535s-28.941 11.026-59.947 17.916c0 0-3.789 37.554-7.235 56.846 0 0 23.774 20.67 53.746 23.083 0 0 27.217-21.704 37.897-48.924 0 0-2.755-22.735-24.461-48.921M104.811 243.837s-8.613 5.856-24.461 10.681l-.644 1.724c11.696 24.975 30.937 45.692 54.794 59.252 1.625-.618 2.696-1.03 2.696-1.03s10.244-.821 14.815-1.684c0 0-2.138-9.078-1.379-25.532 0 0-29.627-19.983-45.821-43.411"/></g><path fill="#28002b" d="M200 335c-74.44 0-135-60.56-135-135S125.56 65 200 65s135 60.56 135 135-60.56 135-135 135m0-265.574c-71.999 0-130.574 58.575-130.574 130.574S128.001 330.574 200 330.574c71.997 0 130.574-58.575 130.574-130.574S271.997 69.426 200 69.426"/><path fill="#fff" stroke="#28002b" stroke-width="5" d="M371.038 202.756c-2.051-1.378-2.051-4.421 0-5.799l.212-.132 21-12.124c2.333-1.347 5.25.337 5.25 3.031v24.248c0 2.695-2.917 4.379-5.25 3.032l-21-12.124z"/></svg>